<svg width="148" height="44" viewBox="0 0 148 44" fill="none" xmlns="http://www.w3.org/2000/svg">
<path d="M24.1624 21.6954C23.6041 21.6954 23.1473 22.1074 23.122 22.6739C23.0712 23.0859 23.0204 23.5495 22.9697 23.807C22.2084 26.8971 19.5439 29.1889 16.3973 29.1889C12.667 29.1889 9.62184 25.9701 9.62184 22.0302C9.62184 18.0902 12.667 14.8971 16.3973 14.8971C18.8841 14.8971 21.0411 16.2877 22.2338 18.3993C22.4114 18.734 22.7667 18.94 23.1473 18.94C23.9594 18.94 24.4669 18.0645 24.0609 17.3435C22.5129 14.5881 19.6708 12.7598 16.3973 12.7598C11.4997 12.7598 7.51562 16.9057 7.51562 22.0302C7.51562 27.1546 11.4997 31.3005 16.3973 31.3005C20.7112 31.3005 24.3146 28.0817 25.1013 23.807C25.152 23.5752 25.2028 23.2147 25.2282 22.8284C25.2535 22.2104 24.7714 21.6954 24.1624 21.6954ZM15.7121 22.7512C15.7121 23.3435 16.1943 23.807 16.7779 23.807H20.2544C20.8381 23.807 21.2949 23.3435 21.2949 22.7512C21.2949 22.1589 20.8381 21.6954 20.2544 21.6954H16.7779C16.1943 21.6954 15.7121 22.1589 15.7121 22.7512Z" fill="#6485EE"/>
<path d="M35.4165 17.2921C32.2698 17.8844 29.8845 20.7685 29.8845 24.2449V29.9874C29.8845 30.5539 30.3666 31.0432 30.9249 31.0432C31.5085 31.0432 31.9907 30.5539 31.9907 29.9874V24.2449C31.9907 21.7986 33.6401 19.79 35.8225 19.378C36.33 19.275 36.6599 18.8372 36.6599 18.3222C36.6599 17.6526 36.0762 17.1634 35.4165 17.2921Z" fill="#7881E4"/>
<path d="M46.5729 17.1631C42.8426 17.1631 39.7975 20.3305 39.7975 24.2446C39.7975 28.133 42.8426 31.3004 46.5729 31.3004C50.3032 31.3004 53.3483 28.133 53.3483 24.2446C53.3483 20.3305 50.3032 17.1631 46.5729 17.1631ZM41.9037 24.2446C41.9037 21.515 44.0099 19.3004 46.5729 19.3004C49.1613 19.3004 51.2421 21.515 51.2421 24.2446C51.2421 26.9485 49.1613 29.1631 46.5729 29.1631C44.0099 29.1631 41.9037 26.9485 41.9037 24.2446Z" fill="#8D7ED9"/>
<path d="M69.2411 17.7041C68.6575 17.7041 68.1753 18.1676 68.1753 18.7599V24.9917C68.1753 27.3093 66.399 29.1633 64.242 29.1633C62.0597 29.1633 60.2833 27.3093 60.2833 24.9917V18.7599C60.2833 18.1676 59.8012 17.7041 59.2175 17.7041C58.6593 17.7041 58.1771 18.1676 58.1771 18.7599V25.0432C58.2025 28.4938 60.9177 31.3007 64.242 31.3007C67.5663 31.3007 70.2562 28.4938 70.2815 25.0432V18.7599C70.2815 18.1676 69.8248 17.7041 69.2411 17.7041Z" fill="#A17ACF"/>
<path d="M81.4468 17.1631C78.1733 17.1631 75.5088 19.9442 75.5088 23.3433V29.9871C75.5088 30.5536 75.9909 31.0429 76.5492 31.0429C77.1329 31.0429 77.615 30.5536 77.615 29.9871V23.3433C77.615 21.103 79.3406 19.3004 81.4468 19.3004C83.553 19.3004 85.2786 21.103 85.2786 23.3433V29.9871C85.2786 30.5536 85.7354 31.0429 86.319 31.0429C86.9027 31.0429 87.3848 30.5536 87.3848 29.9871V23.3433C87.3848 19.9442 84.7203 17.1631 81.4468 17.1631Z" fill="#B576C5"/>
<path d="M104.745 13.0171C104.162 13.0171 103.68 13.5064 103.68 14.0729V19.1201C102.462 17.9098 100.837 17.163 99.0104 17.163C95.2801 17.163 92.2349 20.3304 92.2349 24.2446C92.2349 28.133 95.2801 31.3004 99.0104 31.3004C100.837 31.3004 102.462 30.5536 103.68 29.3433V29.987C103.68 30.5536 104.162 31.0428 104.745 31.0428C105.329 31.0428 105.786 30.5536 105.786 29.987V14.0729C105.786 13.5064 105.329 13.0171 104.745 13.0171ZM94.3411 24.2446C94.3411 21.5149 96.4474 19.3004 99.0104 19.3004C101.599 19.3004 103.68 21.5149 103.68 24.2446C103.68 26.9484 101.599 29.163 99.0104 29.163C96.4474 29.163 94.3411 26.9484 94.3411 24.2446Z" fill="#C972BB"/>
<path d="M121.307 13.0171H121.281C120.698 13.0171 120.241 13.4806 120.241 14.0729V25.0171C120.241 27.3089 118.49 29.163 116.308 29.163C114.43 29.163 112.856 27.7467 112.476 25.8669C112.374 25.3776 111.943 25.0171 111.435 25.0171C110.801 25.0171 110.293 25.6351 110.42 26.2789C110.979 29.1373 113.415 31.3004 116.308 31.3004C119.632 31.3004 122.347 28.4935 122.347 25.0171V14.0729C122.347 13.4806 121.865 13.0171 121.307 13.0171Z" fill="#DE6FB0"/>
<path d="M135.232 13.0171H128.887C128.329 13.0171 127.847 13.5064 127.847 14.0729C127.847 14.6652 128.329 15.1544 128.887 15.1544H135.232C136.957 15.1544 138.378 16.5707 138.378 18.3218C138.378 20.0729 136.957 21.5149 135.232 21.5149H128.887C128.329 21.5149 127.847 21.9785 127.847 22.5707V29.987C127.847 30.5536 128.329 31.0428 128.887 31.0428C129.471 31.0428 129.953 30.5536 129.953 29.987V23.6523H135.232C138.124 23.6523 140.484 21.2574 140.484 18.3218C140.484 15.4119 138.124 13.0171 135.232 13.0171Z" fill="#F26BA6"/>
</svg>
